<svg xmlns="http://www.w3.org/2000/svg" width="411" height="334" viewBox="0 0 411 334" fill="none"><path fill-rule="evenodd" clip-rule="evenodd" d="M0.869629 209.478C0.869629 94.2941 92.8539 0.583984 205.917 0.583984C318.987 0.583984 410.971 94.2941 411 209.478C411 245.5 402.008 279.421 386.188 309.027C384.241 312.675 382.15 316.234 380 319.749C379.397 320.726 378.779 321.695 378.162 322.665C376.433 325.388 374.646 328.066 372.794 330.701C372.548 331.048 372.307 331.397 372.067 331.746C371.739 332.221 371.412 332.695 371.073 333.165C368.669 336.48 366.192 339.728 363.606 342.888C363.374 343.169 363.136 343.445 362.898 343.72C362.66 343.996 362.422 344.272 362.19 344.553C360.011 347.172 357.759 349.733 355.456 352.234C354.657 353.1 353.851 353.965 353.038 354.816C350.67 357.295 348.251 359.722 345.767 362.083C345.535 362.302 345.307 362.527 345.078 362.753C344.811 363.015 344.544 363.279 344.271 363.533C341.518 366.101 338.678 368.565 335.794 370.97C335.686 371.059 335.582 371.155 335.476 371.251C335.355 371.362 335.233 371.474 335.104 371.577C334.617 371.981 334.118 372.375 333.62 372.767C333.317 373.006 333.014 373.245 332.715 373.486C332.172 373.917 331.619 374.334 331.065 374.751C330.611 375.094 330.156 375.437 329.708 375.787C329.529 375.926 329.35 376.066 329.172 376.205C328.148 377.005 327.129 377.801 326.083 378.569C325.94 378.676 325.801 378.785 325.663 378.893C325.492 379.027 325.323 379.161 325.146 379.287C324.848 379.503 324.551 379.72 324.254 379.937C323.627 380.395 323 380.853 322.364 381.3C322.029 381.535 321.684 381.758 321.338 381.98C321.053 382.163 320.769 382.345 320.49 382.536C318.536 383.89 316.539 385.192 314.534 386.48C314.256 386.658 313.978 386.836 313.7 387.014C312.776 387.607 311.855 388.197 310.917 388.766C308.527 390.231 306.094 391.615 303.646 392.977C303.318 393.158 302.996 393.349 302.674 393.541C302.297 393.766 301.92 393.99 301.533 394.198C301.184 394.383 300.828 394.56 300.479 394.745C300.312 394.834 300.149 394.928 299.985 395.023C299.822 395.117 299.659 395.211 299.492 395.3V395.263C299.317 395.352 299.143 395.444 298.969 395.537C298.795 395.629 298.62 395.722 298.446 395.811C295.62 397.269 292.751 398.667 289.853 399.999C289.508 400.157 289.163 400.319 288.819 400.48C288.229 400.756 287.638 401.032 287.042 401.294C286.382 401.587 285.707 401.853 285.032 402.118C284.548 402.309 284.064 402.499 283.585 402.7C285.64 399.607 287.471 396.351 289.148 393.006C289.141 393.014 289.127 393.021 289.119 393.029C290.696 389.906 292.083 386.68 293.325 383.379C293.463 383.002 293.594 382.617 293.732 382.232C294.821 379.221 295.758 376.142 296.55 373.005C296.704 372.381 296.831 371.75 296.959 371.12C297.029 370.771 297.1 370.422 297.175 370.075C297.618 368.077 297.966 366.042 298.279 363.999C298.562 362.075 298.802 360.144 298.976 358.183C299.237 355.32 299.499 352.456 299.499 349.526C299.499 344.412 298.99 339.432 298.228 334.541C298.264 334.489 298.3 334.43 298.344 334.371C291.596 288.53 252.788 253.218 205.931 253.218C159.075 253.218 120.266 288.53 113.526 334.378C113.569 334.437 113.598 334.497 113.642 334.548C112.886 339.403 112.385 344.346 112.378 349.415V349.422C112.378 349.44 112.376 349.459 112.374 349.477C112.373 349.496 112.371 349.514 112.371 349.533C112.371 352.379 112.619 355.155 112.866 357.928L112.886 358.154C113.061 360.122 113.3 362.075 113.591 364.014C113.903 366.049 114.252 368.077 114.688 370.067C114.758 370.395 114.825 370.724 114.892 371.053C115.026 371.711 115.16 372.368 115.32 373.02C116.104 376.157 117.048 379.228 118.131 382.232C118.269 382.625 118.399 383.009 118.545 383.394C119.787 386.694 121.174 389.921 122.75 393.036C122.743 393.029 122.728 393.021 122.721 393.014C124.406 396.358 126.237 399.622 128.292 402.722C127.841 402.531 127.383 402.354 126.924 402.178C126.407 401.979 125.891 401.78 125.387 401.56C125.285 401.516 125.183 401.468 125.081 401.42C124.98 401.372 124.878 401.324 124.777 401.279C121.167 399.688 117.608 397.971 114.107 396.173C113.526 395.877 112.952 395.574 112.378 395.271V395.285C109.066 393.547 105.812 391.704 102.609 389.787C102.479 389.705 102.344 389.632 102.208 389.558C102.123 389.512 102.039 389.466 101.955 389.417C101.821 389.336 101.686 389.258 101.552 389.181C101.417 389.103 101.283 389.025 101.149 388.944C100.053 388.28 98.9902 387.568 97.9277 386.857C97.3568 386.475 96.7859 386.093 96.2096 385.718C95.7856 385.439 95.3606 385.164 94.936 384.889C94.2115 384.421 93.4884 383.953 92.774 383.468C90.4569 381.899 88.1908 380.257 85.9391 378.592C85.6945 378.409 85.4491 378.227 85.2037 378.046C84.713 377.682 84.2224 377.319 83.7383 376.949C83.2355 376.567 82.7258 376.195 82.2161 375.822C81.4518 375.264 80.6875 374.705 79.9467 374.115C79.7725 373.974 79.5965 373.834 79.4204 373.693C79.2442 373.553 79.068 373.412 78.8935 373.271C78.5625 373.002 78.2505 372.714 77.939 372.426C77.6422 372.151 77.3459 371.877 77.0341 371.621C76.8779 371.492 76.718 371.368 76.5581 371.244C76.3984 371.12 76.2387 370.996 76.0826 370.866V370.778C66.9888 363.163 58.4469 354.883 50.755 345.803C50.7114 345.752 50.6678 345.702 50.6242 345.652C50.5806 345.602 50.5371 345.552 50.4935 345.5C41.8572 335.274 34.1725 324.189 27.5846 312.386C10.6172 281.981 0.869629 246.876 0.869629 209.478ZM91.9895 285.155C114.063 244.131 156.845 216.249 205.917 216.249C254.988 216.249 297.77 244.131 319.844 285.148C321.173 278.029 321.943 270.711 321.943 263.2C321.943 198.023 269.893 144.99 205.917 144.99C141.94 144.99 89.8904 198.023 89.8904 263.2C89.8904 270.718 90.6531 278.037 91.9895 285.155ZM358.238 263.2C358.238 271.362 357.541 279.354 356.343 287.175C368.022 263.822 374.676 237.442 374.676 209.478C374.676 114.68 298.983 37.553 205.924 37.553C112.865 37.553 37.1651 114.68 37.1651 209.478C37.1651 237.442 43.8184 263.822 55.498 287.175C54.2995 279.354 53.6022 271.362 53.6022 263.2C53.6022 177.63 121.929 108.013 205.917 108.013C289.904 108.013 358.238 177.63 358.238 263.2ZM258.402 349.532C258.402 379.059 234.907 402.995 205.924 402.995C176.941 402.995 153.445 379.059 153.445 349.532C153.445 320.006 176.941 296.069 205.924 296.069C234.907 296.069 258.402 320.006 258.402 349.532Z" fill="url(#paint0_linear_602_2572)"></path><defs><linearGradient id="paint0_linear_602_2572" x1="205.935" y1="0.583984" x2="205.935" y2="402.996" gradientUnits="userSpaceOnUse"><stop stop-color="white" stop-opacity="0"></stop><stop offset="0.58" stop-color="#FFA765" stop-opacity="0.802239"></stop><stop offset="0.97" stop-color="#FF6D01"></stop></linearGradient></defs></svg>