<svg xmlns="http://www.w3.org/2000/svg" width="911" height="776" viewBox="0 0 911 776" fill="none"><path opacity="0.15" d="M82.2782 779.939L82.2806 779.941C82.3673 780.043 82.4558 780.143 82.5579 780.258C82.6178 780.325 82.6826 780.398 82.7499 780.475C82.7933 780.525 82.8378 780.576 82.8825 780.628C100.501 801.073 120.075 819.73 140.931 836.898L141.66 837.498V837.672C141.76 837.749 141.863 837.827 141.968 837.907L141.976 837.913C142.335 838.187 142.725 838.484 143.109 838.797C143.872 839.414 144.591 840.068 145.263 840.678L145.329 840.738C146.034 841.379 146.691 841.974 147.377 842.522C147.772 842.835 148.172 843.149 148.576 843.466L148.577 843.467C148.979 843.783 149.386 844.102 149.79 844.422C151.479 845.745 153.161 846.953 154.88 848.187C156.057 849.032 157.251 849.889 158.478 850.805L158.482 850.808C159.585 851.637 160.694 852.444 161.816 853.261C162.381 853.673 162.95 854.087 163.524 854.508C168.697 858.269 173.888 861.968 179.187 865.495L179.189 865.497C180.819 866.585 182.445 867.618 184.095 868.668C185.077 869.291 186.067 869.921 187.072 870.57C188.443 871.448 189.776 872.326 191.097 873.195C193.515 874.787 195.89 876.35 198.378 877.833C198.667 878.005 198.959 878.171 199.271 878.348C199.571 878.519 199.891 878.701 200.215 878.893C200.317 878.95 200.458 879.026 200.619 879.113C200.969 879.301 201.412 879.54 201.749 879.748C208.145 883.509 214.625 887.142 221.201 890.604V890.574L224.124 892.093C225.447 892.781 226.754 893.461 228.076 894.122L228.082 894.125C236.11 898.179 244.265 902.046 252.532 905.628C252.793 905.74 253.048 905.859 253.274 905.964L253.285 905.969C253.523 906.08 253.73 906.176 253.932 906.263C253.932 906.263 253.932 906.263 253.933 906.263L253.144 908.101C254.275 908.586 255.434 909.025 256.594 909.464L82.2782 779.939ZM82.2782 779.939C62.4834 756.894 44.87 731.916 29.7708 705.321C-9.11836 636.807 -31.4585 557.708 -31.4585 473.438C-31.4585 213.889 179.37 2.72998 438.5 2.72998C697.646 2.72998 908.475 213.889 908.542 473.438C908.542 554.609 887.932 631.04 851.674 697.751L851.674 697.752C847.219 705.96 842.426 713.978 837.489 721.913C836.112 724.107 834.7 726.287 833.279 728.48L833.278 728.482C829.316 734.617 825.222 740.651 820.98 746.584C820.378 747.42 819.817 748.22 819.265 749.007C818.53 750.055 817.81 751.082 817.029 752.143C811.515 759.619 805.839 766.937 799.917 774.051C799.4 774.666 798.869 775.272 798.321 775.895L798.055 776.199C797.596 776.723 797.128 777.259 796.668 777.807C791.676 783.706 786.516 789.475 781.237 795.113C779.402 797.067 777.556 799.016 775.695 800.929L775.695 800.93C770.264 806.519 764.72 811.989 759.029 817.306C758.435 817.858 757.851 818.425 757.287 818.971C756.716 819.525 756.162 820.059 755.6 820.574L755.599 820.575C749.298 826.352 742.793 831.902 736.177 837.327C736.027 837.449 735.88 837.575 735.74 837.698C735.589 837.831 735.446 837.96 735.316 838.076C735.053 838.312 734.833 838.507 734.613 838.681L734.6 838.691L734.587 838.701C733.479 839.606 732.372 840.464 731.245 841.338C730.546 841.879 729.84 842.426 729.121 842.994C727.851 843.986 726.641 844.882 725.409 845.794C724.375 846.56 723.326 847.337 722.214 848.191C721.8 848.508 721.388 848.824 720.977 849.14C718.618 850.95 716.297 852.732 713.916 854.454L713.91 854.458C713.754 854.572 713.601 854.686 713.451 854.8C713.22 854.975 712.997 855.148 712.787 855.31C712.432 855.584 712.107 855.832 711.778 856.065L711.771 856.07C711.07 856.569 710.379 857.065 709.693 857.558C708.257 858.589 706.841 859.606 705.391 860.608L705.39 860.609C704.726 861.068 704.034 861.509 703.309 861.967L703.093 862.104C702.443 862.514 701.765 862.943 701.099 863.39L701.088 863.397C696.621 866.441 692.047 869.374 687.439 872.283C686.79 872.69 686.147 873.096 685.506 873.5C683.384 874.838 681.292 876.158 679.156 877.431L679.147 877.436C673.685 880.729 668.115 883.844 662.492 886.918C661.705 887.345 660.934 887.796 660.196 888.228L660.008 888.339C659.204 888.809 658.435 889.256 657.655 889.667C657.266 889.869 656.872 890.069 656.465 890.275C656.061 890.479 655.645 890.69 655.23 890.906L655.229 890.906C654.968 891.043 654.712 891.184 654.466 891.322M82.2782 779.939L654.466 891.322M654.466 891.322L652.986 892.063C652.568 892.272 652.152 892.489 651.753 892.697C651.349 892.908 650.963 893.11 650.579 893.302L650.57 893.307C644.093 896.592 637.516 899.744 630.873 902.745C630.045 903.118 629.24 903.489 628.442 903.856C627.104 904.472 625.789 905.077 624.434 905.662L624.426 905.665C623.726 905.971 623.038 906.256 622.352 906.531C625.776 901.06 628.92 895.409 631.856 889.653L631.826 889.631C635.476 882.515 638.685 875.173 641.556 867.674L641.559 867.665L641.562 867.656C641.876 866.814 642.208 865.857 642.503 865.049C645.034 858.169 647.21 851.141 649.048 843.98L649.05 843.97C649.415 842.521 649.726 841.01 650.025 839.551C650.185 838.776 650.341 838.015 650.501 837.286C651.534 832.705 652.344 828.052 653.066 823.411L653.068 823.4C653.724 819.018 654.281 814.61 654.686 810.128L654.466 891.322ZM654.687 810.123L654.69 810.084C655.29 803.632 655.899 797.075 655.899 790.351C655.899 778.931 654.772 767.822 653.076 756.943L653.342 756.588L653.218 755.761C637.544 651.07 547.396 570.417 438.533 570.417C329.671 570.417 239.522 651.07 223.865 755.779L223.741 756.605L224.007 756.96C222.33 767.744 221.22 778.754 221.201 790.058C221.199 790.08 221.196 790.117 221.193 790.156C221.189 790.208 221.184 790.282 221.184 790.368C221.184 796.9 221.762 803.26 222.33 809.513L222.38 810.055C222.785 814.555 223.342 819.016 224.016 823.439L224.017 823.446C224.739 828.072 225.549 832.706 226.565 837.267C226.717 837.965 226.866 838.685 227.018 839.416C227.331 840.929 227.654 842.489 228.032 844L228.034 844.009C229.856 851.176 232.049 858.188 234.562 865.044C234.868 865.902 235.183 866.811 235.527 867.707C235.527 867.708 235.528 867.709 235.528 867.709L654.687 810.123ZM245.258 889.651L245.228 889.673C248.185 895.442 251.34 901.118 254.776 906.615L245.258 889.651ZM174.308 645.063L175.353 650.534L178.027 645.648C228.499 553.426 326.314 490.759 438.5 490.759C550.685 490.759 648.5 553.426 698.972 645.631L701.651 650.524L702.691 645.044C705.771 628.827 707.558 612.141 707.558 595.005C707.558 446.415 586.862 325.506 438.5 325.506C290.137 325.506 169.441 446.415 169.441 595.005C169.441 612.157 171.211 628.843 174.308 645.063ZM782.76 648.951L786.519 650.166C813.539 597.048 828.933 537.043 828.933 473.438C828.933 257.818 653.819 82.3874 438.516 82.3874C223.214 82.3874 48.083 257.818 48.083 473.438C48.083 537.043 63.4767 597.048 90.4974 650.166L94.2561 648.951C91.5114 631.34 89.9165 613.359 89.9165 595.005C89.9165 402.469 246.294 245.832 438.5 245.832C630.706 245.832 787.1 402.469 787.1 595.005C787.1 613.359 785.505 631.34 782.76 648.951Z" stroke="url(#paint0_linear_628_805)" stroke-width="4"></path><defs><linearGradient id="paint0_linear_628_805" x1="355.071" y1="14.3577" x2="355.492" y2="656.242" gradientUnits="userSpaceOnUse"><stop stop-color="#FF6E1A"></stop><stop offset="1" stop-color="#FF6E1A" stop-opacity="0"></stop></linearGradient></defs></svg>